<mxfile host="app.diagrams.net" modified="2023-04-27T02:56:26.789Z" agent="Mozilla/5.0 (Windows NT 10.0; Win64; x64) AppleWebKit/537.36 (KHTML, like Gecko) Chrome/112.0.0.0 Safari/537.36 Edg/112.0.1722.58" etag="Kd3cwtjHg0LGMp7DhEq5" version="21.2.1" type="github">
  <diagram name="第 1 页" id="5_RrAHq1HEbASEUm5bF7">
    <mxGraphModel dx="993" dy="573" grid="0" gridSize="10" guides="1" tooltips="1" connect="1" arrows="1" fold="1" page="1" pageScale="1" pageWidth="827" pageHeight="1169" math="0" shadow="0">
      <root>
        <mxCell id="0" />
        <mxCell id="1" parent="0" />
        <mxCell id="vXdF0TbWKB-GFrXej9eJ-1" value="&lt;p class=&quot;MsoNormal&quot;&gt;&lt;font face=&quot;宋体&quot;&gt;免疫信息&lt;/font&gt;&lt;/p&gt;" style="rounded=0;whiteSpace=wrap;html=1;" parent="1" vertex="1">
          <mxGeometry x="340" y="240" width="120" height="60" as="geometry" />
        </mxCell>
        <mxCell id="vXdF0TbWKB-GFrXej9eJ-2" value="该记录的更新时间" style="ellipse;whiteSpace=wrap;html=1;" parent="1" vertex="1">
          <mxGeometry x="140" y="210" width="110" height="50" as="geometry" />
        </mxCell>
        <mxCell id="vXdF0TbWKB-GFrXej9eJ-3" value="免疫记录id" style="ellipse;whiteSpace=wrap;html=1;" parent="1" vertex="1">
          <mxGeometry x="230" y="140" width="110" height="50" as="geometry" />
        </mxCell>
        <mxCell id="vXdF0TbWKB-GFrXej9eJ-4" value="该记录的创建时间" style="ellipse;whiteSpace=wrap;html=1;" parent="1" vertex="1">
          <mxGeometry x="150" y="290" width="110" height="50" as="geometry" />
        </mxCell>
        <mxCell id="vXdF0TbWKB-GFrXej9eJ-5" value="接种机构名称" style="ellipse;whiteSpace=wrap;html=1;" parent="1" vertex="1">
          <mxGeometry x="230" y="350" width="110" height="50" as="geometry" />
        </mxCell>
        <mxCell id="vXdF0TbWKB-GFrXej9eJ-6" value="接种医生姓名" style="ellipse;whiteSpace=wrap;html=1;" parent="1" vertex="1">
          <mxGeometry x="360" y="360" width="110" height="50" as="geometry" />
        </mxCell>
        <mxCell id="vXdF0TbWKB-GFrXej9eJ-7" value="儿童id" style="ellipse;whiteSpace=wrap;html=1;" parent="1" vertex="1">
          <mxGeometry x="345" y="140" width="110" height="50" as="geometry" />
        </mxCell>
        <mxCell id="vXdF0TbWKB-GFrXej9eJ-8" value="接种日期" style="ellipse;whiteSpace=wrap;html=1;" parent="1" vertex="1">
          <mxGeometry x="490" y="150" width="110" height="50" as="geometry" />
        </mxCell>
        <mxCell id="vXdF0TbWKB-GFrXej9eJ-9" value="疫苗名称" style="ellipse;whiteSpace=wrap;html=1;" parent="1" vertex="1">
          <mxGeometry x="520" y="220" width="110" height="50" as="geometry" />
        </mxCell>
        <mxCell id="vXdF0TbWKB-GFrXej9eJ-10" value="疫苗剂次" style="ellipse;whiteSpace=wrap;html=1;" parent="1" vertex="1">
          <mxGeometry x="540" y="290" width="110" height="50" as="geometry" />
        </mxCell>
        <mxCell id="vXdF0TbWKB-GFrXej9eJ-11" value="疫苗批号" style="ellipse;whiteSpace=wrap;html=1;" parent="1" vertex="1">
          <mxGeometry x="480" y="360" width="110" height="50" as="geometry" />
        </mxCell>
        <mxCell id="vXdF0TbWKB-GFrXej9eJ-13" value="" style="endArrow=none;html=1;rounded=0;entryX=0;entryY=0;entryDx=0;entryDy=0;exitX=1;exitY=0.5;exitDx=0;exitDy=0;" parent="1" source="vXdF0TbWKB-GFrXej9eJ-2" target="vXdF0TbWKB-GFrXej9eJ-1" edge="1">
          <mxGeometry width="50" height="50" relative="1" as="geometry">
            <mxPoint x="260" y="290" as="sourcePoint" />
            <mxPoint x="310" y="240" as="targetPoint" />
          </mxGeometry>
        </mxCell>
        <mxCell id="vXdF0TbWKB-GFrXej9eJ-14" value="" style="endArrow=none;html=1;rounded=0;entryX=0.5;entryY=1;entryDx=0;entryDy=0;exitX=0.25;exitY=0;exitDx=0;exitDy=0;" parent="1" source="vXdF0TbWKB-GFrXej9eJ-1" target="vXdF0TbWKB-GFrXej9eJ-3" edge="1">
          <mxGeometry width="50" height="50" relative="1" as="geometry">
            <mxPoint x="295" y="250" as="sourcePoint" />
            <mxPoint x="345" y="200" as="targetPoint" />
          </mxGeometry>
        </mxCell>
        <mxCell id="vXdF0TbWKB-GFrXej9eJ-15" value="" style="endArrow=none;html=1;rounded=0;entryX=0.5;entryY=1;entryDx=0;entryDy=0;" parent="1" source="vXdF0TbWKB-GFrXej9eJ-1" target="vXdF0TbWKB-GFrXej9eJ-7" edge="1">
          <mxGeometry width="50" height="50" relative="1" as="geometry">
            <mxPoint x="90" y="530" as="sourcePoint" />
            <mxPoint x="140" y="480" as="targetPoint" />
          </mxGeometry>
        </mxCell>
        <mxCell id="vXdF0TbWKB-GFrXej9eJ-16" value="" style="endArrow=none;html=1;rounded=0;entryX=0.249;entryY=0.972;entryDx=0;entryDy=0;entryPerimeter=0;exitX=0.75;exitY=0;exitDx=0;exitDy=0;" parent="1" source="vXdF0TbWKB-GFrXej9eJ-1" target="vXdF0TbWKB-GFrXej9eJ-8" edge="1">
          <mxGeometry width="50" height="50" relative="1" as="geometry">
            <mxPoint x="100" y="540" as="sourcePoint" />
            <mxPoint x="150" y="490" as="targetPoint" />
          </mxGeometry>
        </mxCell>
        <mxCell id="vXdF0TbWKB-GFrXej9eJ-17" value="" style="endArrow=none;html=1;rounded=0;entryX=0;entryY=0.5;entryDx=0;entryDy=0;exitX=1;exitY=0.25;exitDx=0;exitDy=0;" parent="1" source="vXdF0TbWKB-GFrXej9eJ-1" target="vXdF0TbWKB-GFrXej9eJ-9" edge="1">
          <mxGeometry width="50" height="50" relative="1" as="geometry">
            <mxPoint x="460" y="295" as="sourcePoint" />
            <mxPoint x="510" y="245" as="targetPoint" />
          </mxGeometry>
        </mxCell>
        <mxCell id="vXdF0TbWKB-GFrXej9eJ-18" value="" style="endArrow=none;html=1;rounded=0;entryX=0;entryY=0.5;entryDx=0;entryDy=0;exitX=1;exitY=0.75;exitDx=0;exitDy=0;" parent="1" source="vXdF0TbWKB-GFrXej9eJ-1" target="vXdF0TbWKB-GFrXej9eJ-10" edge="1">
          <mxGeometry width="50" height="50" relative="1" as="geometry">
            <mxPoint x="120" y="560" as="sourcePoint" />
            <mxPoint x="170" y="510" as="targetPoint" />
          </mxGeometry>
        </mxCell>
        <mxCell id="vXdF0TbWKB-GFrXej9eJ-19" value="" style="endArrow=none;html=1;rounded=0;entryX=0;entryY=0.5;entryDx=0;entryDy=0;exitX=0.94;exitY=0.266;exitDx=0;exitDy=0;exitPerimeter=0;" parent="1" source="vXdF0TbWKB-GFrXej9eJ-4" target="vXdF0TbWKB-GFrXej9eJ-1" edge="1">
          <mxGeometry width="50" height="50" relative="1" as="geometry">
            <mxPoint x="260" y="310" as="sourcePoint" />
            <mxPoint x="310" y="260" as="targetPoint" />
          </mxGeometry>
        </mxCell>
        <mxCell id="vXdF0TbWKB-GFrXej9eJ-20" value="" style="endArrow=none;html=1;rounded=0;entryX=0.25;entryY=1;entryDx=0;entryDy=0;exitX=0.5;exitY=0;exitDx=0;exitDy=0;" parent="1" source="vXdF0TbWKB-GFrXej9eJ-5" target="vXdF0TbWKB-GFrXej9eJ-1" edge="1">
          <mxGeometry width="50" height="50" relative="1" as="geometry">
            <mxPoint x="140" y="580" as="sourcePoint" />
            <mxPoint x="190" y="530" as="targetPoint" />
          </mxGeometry>
        </mxCell>
        <mxCell id="vXdF0TbWKB-GFrXej9eJ-21" value="" style="endArrow=none;html=1;rounded=0;entryX=0.5;entryY=1;entryDx=0;entryDy=0;exitX=0.5;exitY=0;exitDx=0;exitDy=0;" parent="1" source="vXdF0TbWKB-GFrXej9eJ-6" target="vXdF0TbWKB-GFrXej9eJ-1" edge="1">
          <mxGeometry width="50" height="50" relative="1" as="geometry">
            <mxPoint x="150" y="590" as="sourcePoint" />
            <mxPoint x="200" y="540" as="targetPoint" />
          </mxGeometry>
        </mxCell>
        <mxCell id="vXdF0TbWKB-GFrXej9eJ-22" value="" style="endArrow=none;html=1;rounded=0;entryX=1;entryY=1;entryDx=0;entryDy=0;exitX=0.5;exitY=0;exitDx=0;exitDy=0;" parent="1" source="vXdF0TbWKB-GFrXej9eJ-11" target="vXdF0TbWKB-GFrXej9eJ-1" edge="1">
          <mxGeometry width="50" height="50" relative="1" as="geometry">
            <mxPoint x="160" y="600" as="sourcePoint" />
            <mxPoint x="210" y="550" as="targetPoint" />
          </mxGeometry>
        </mxCell>
      </root>
    </mxGraphModel>
  </diagram>
</mxfile>
